<svg width="24" height="24" viewBox="0 0 24 24" fill="none" xmlns="http://www.w3.org/2000/svg">
<g id="Behance-Logo--Streamline-Logos.svg">
<path id="Vector" fill-rule="evenodd" clip-rule="evenodd" d="M15 6.5V4.5H21.5V6.5H15ZM13.926 9.797C14.876 8.683 16.266 8 18 8C21.103 8 23 10.708 23 13.5V15H15.799C16.246 15.86 17.089 16.5 18 16.5C18.9527 16.4913 19.8854 16.226 20.7 15.732L22.192 18.335C20.944 19.07 19.458 19.5 18 19.5C16.558 19.5 15.186 18.831 14.18 17.83C13.176 16.828 12.5 15.456 12.5 14C12.5 12.398 12.983 10.901 13.926 9.797ZM20.363 12.5H15.203C15.589 11.192 16.625 10.5 18 10.5C19.254 10.5 20.06 11.355 20.363 12.5ZM1 5H6.75C7.50128 4.99991 8.23917 5.19897 8.88847 5.57691C9.53777 5.95484 10.0753 6.49814 10.4463 7.15145C10.8172 7.80476 11.0084 8.54473 11.0003 9.29597C10.9921 10.0472 10.785 10.7829 10.4 11.428C11.0887 11.9775 11.5895 12.7275 11.8333 13.5742C12.077 14.4208 12.0517 15.3223 11.7606 16.1539C11.4696 16.9855 10.9273 17.7061 10.2088 18.216C9.49027 18.7258 8.63105 18.9998 7.75 19H1V5ZM4 13V16.5H7.25C7.71413 16.5 8.15925 16.3156 8.48744 15.9874C8.81563 15.6592 9 15.2141 9 14.75C9 14.2859 8.81563 13.8408 8.48744 13.5126C8.15925 13.1844 7.71413 13 7.25 13H4ZM8 9.25C8 9.71413 7.81563 10.1592 7.48744 10.4874C7.15925 10.8156 6.71413 11 6.25 11H4V7.5H6.25C7.216 7.5 8 8.284 8 9.25Z" fill="white"/>
</g>
</svg>
