<svg width="24" height="24" viewBox="0 0 24 24" fill="none" xmlns="http://www.w3.org/2000/svg">
<g id="Facebook-Logo--Streamline-Ultimate.svg">
<path id="Vector" d="M18.3778 7.26659C18.286 7.16209 18.1542 7.10159 18.0152 7.09999H14.3206V5.71819C14.3206 5.44379 14.3794 5.13019 14.8204 5.13019H17.7604C17.8917 5.13879 18.0191 5.08419 18.1034 4.98319C18.1925 4.89539 18.242 4.77509 18.2406 4.64999V0.72999C18.2406 0.45939 18.0212 0.23999 17.7506 0.23999H13.5072C8.80321 0.23999 8.44061 4.25799 8.44061 5.48299V7.09999H5.99061C5.72001 7.09999 5.50061 7.31939 5.50061 7.58999V11.51C5.50061 11.7806 5.72001 12 5.99061 12H8.44061V23.27C8.44061 23.5406 8.66001 23.76 8.93061 23.76H13.8306C14.1012 23.76 14.3206 23.5406 14.3206 23.27V12H17.6036C17.8562 12.0013 18.0683 11.8103 18.0936 11.559L18.4954 7.63899C18.5134 7.50359 18.4703 7.36709 18.3778 7.26659Z" fill="white"/>
</g>
</svg>
