<svg width="24" height="24" viewBox="0 0 24 24" fill="none" xmlns="http://www.w3.org/2000/svg">
<g id="Github-Logo--Streamline-Ultimate.svg">
<g id="Github-Logo--Streamline-Ultimate.svg_2">
<path id="Vector" d="M22.13 9.48C22.65 8.42 24.34 4.38 21.28 1.86C21.199 1.79755 21.1019 1.7594 21 1.75C19.09 1.75 16.55 4.2 15.78 5C13.3293 4.34815 10.7508 4.34815 8.30005 5C7.51005 4.19 5.00005 1.75 3.08005 1.75C2.9674 1.75142 2.85839 1.7901 2.77005 1.86C0.120046 4 0.920046 7.52 1.89005 9.44C0.836411 11.1842 0.373491 13.2218 0.570046 15.25C0.830046 18.56 3.57005 22.25 7.06005 22.25H16.94C20.45 22.25 23.17 18.56 23.42 15.25C23.6277 13.2376 23.1749 11.2124 22.13 9.48ZM16 19.75H8.00005C7.07179 19.75 6.18155 19.3813 5.52517 18.7249C4.8688 18.0685 4.50005 17.1783 4.50005 16.25C4.50005 10.34 8.62005 12.72 12 12.72C15.38 12.72 19.5 10.28 19.5 16.25C19.5 17.1783 19.1313 18.0685 18.4749 18.7249C17.8185 19.3813 16.9283 19.75 16 19.75Z" fill="white"/>
<path id="Vector_2" d="M14.52 16.25C14.52 16.6478 14.6254 17.0294 14.8129 17.3107C15.0004 17.592 15.2548 17.75 15.52 17.75C15.7852 17.75 16.0396 17.592 16.2271 17.3107C16.4147 17.0294 16.52 16.6478 16.52 16.25C16.52 15.8522 16.4147 15.4706 16.2271 15.1893C16.0396 14.908 15.7852 14.75 15.52 14.75C15.2548 14.75 15.0004 14.908 14.8129 15.1893C14.6254 15.4706 14.52 15.8522 14.52 16.25Z" fill="white"/>
<path id="Vector_3" d="M7.52002 16.25C7.52002 16.6478 7.62538 17.0294 7.81291 17.3107C8.00045 17.592 8.2548 17.75 8.52002 17.75C8.78524 17.75 9.03959 17.592 9.22713 17.3107C9.41466 17.0294 9.52002 16.6478 9.52002 16.25C9.52002 15.8522 9.41466 15.4706 9.22713 15.1893C9.03959 14.908 8.78524 14.75 8.52002 14.75C8.2548 14.75 8.00045 14.908 7.81291 15.1893C7.62538 15.4706 7.52002 15.8522 7.52002 16.25Z" fill="white"/>
</g>
</g>
</svg>
