<svg width="16" height="15" viewBox="0 0 16 15" fill="none" xmlns="http://www.w3.org/2000/svg">
<path d="M4.21577 9.20077C4.01207 8.7046 3.89599 8.16292 3.88461 7.59619H0.875732C0.88825 8.57146 1.08626 9.50007 1.43563 10.3513L4.21463 9.20077H4.21577Z" fill="#00FF57"/>
<path d="M3.88249 7.46977C3.88591 6.90077 3.99629 6.35681 4.19317 5.85609L1.41417 4.70557C1.07049 5.56021 0.87817 6.49223 0.874756 7.46977H3.88249Z" fill="#00FF57"/>
<path d="M5.24338 4.279C5.63713 3.89663 6.1003 3.58482 6.61353 3.36518L5.46188 0.586182C4.5822 0.95717 3.78788 1.49317 3.11646 2.15207L5.24338 4.279Z" fill="#00FF57"/>
<path d="M4.23969 5.7378C4.45819 5.22456 4.77 4.7614 5.15351 4.36765L3.02658 2.24072C2.36654 2.91214 1.83168 3.70533 1.46069 4.58614L4.23969 5.7378Z" fill="#00FF57"/>
<path d="M13.7546 2.27612L11.6277 4.40305C12.0021 4.79566 12.3059 5.25427 12.5187 5.76182L15.2977 4.6113C14.9324 3.73618 14.4044 2.94641 13.7546 2.27612Z" fill="#00FF57"/>
<path d="M6.731 3.31841C7.23172 3.12154 7.77569 3.01115 8.34469 3.00774V0C7.36715 0.00341401 6.43512 0.195736 5.57935 0.539413L6.72987 3.31841H6.731Z" fill="#00FF57"/>
<path d="M8.47095 3.00896C9.03767 3.02148 9.57936 3.13755 10.0755 3.34012L11.226 0.561117C10.376 0.211751 9.44621 0.0137387 8.47095 0.0012207V3.00896Z" fill="#00FF57"/>
<path d="M10.1926 3.39122C10.6979 3.61541 11.1542 3.92836 11.54 4.31187L13.6669 2.18494C13.0035 1.52376 12.216 0.987763 11.3443 0.611084L10.1926 3.39122Z" fill="#00FF57"/>
<path d="M5.1854 10.6653C4.80189 10.2783 4.48894 9.82201 4.26476 9.31787L1.48462 10.4695C1.8613 11.3424 2.3973 12.1287 3.05848 12.7922L5.1854 10.6653Z" fill="#00FF57"/>
<path d="M12.495 9.29395C12.2765 9.79353 11.9703 10.2453 11.5959 10.6311L13.7229 12.758C14.3749 12.0957 14.9041 11.3128 15.2751 10.4456L12.495 9.29395Z" fill="#00FF57"/>
<path d="M12.8658 7.59611C12.8544 8.15373 12.7406 8.68745 12.5437 9.17679L15.3227 10.3273C15.6675 9.48292 15.8621 8.56113 15.8735 7.59497H12.8658V7.59611Z" fill="#00FF57"/>
<path d="M12.5657 5.87904C12.7569 6.37293 12.8638 6.90893 12.8672 7.46996H15.875C15.8716 6.50152 15.6827 5.57746 15.3447 4.72852L12.5657 5.87904Z" fill="#00FF57"/>
<path d="M11.5059 10.7212C11.1201 11.0956 10.6683 11.4017 10.1687 11.6202L11.3204 14.4004C12.1875 14.0294 12.9705 13.5002 13.6328 12.8481L11.5059 10.7212Z" fill="#00FF57"/>
<path d="M6.63633 11.6452C6.12879 11.4324 5.67017 11.1274 5.27756 10.7542L3.15063 12.8811C3.82092 13.532 4.61069 14.0589 5.48581 14.4242L6.63633 11.6452Z" fill="#00FF57"/>
<path d="M8.34472 11.9935C7.78368 11.9901 7.24882 11.8831 6.75379 11.6919L5.60327 14.4709C6.45222 14.8089 7.37628 14.9978 8.34472 15.0012V11.9935Z" fill="#00FF57"/>
<path d="M10.0526 11.6692C9.56213 11.8672 9.02954 11.9799 8.47192 11.9912V14.999C9.43809 14.9865 10.3587 14.7919 11.2043 14.4482L10.0537 11.6692H10.0526Z" fill="#00FF57"/>
</svg>
