<svg width="24" height="24" viewBox="0 0 24 24" fill="none" xmlns="http://www.w3.org/2000/svg">
<g id="Instagram-Logo-1--Streamline-Ultimate.svg" clip-path="url(#clip0_16_6124)">
<g id="Instagram-Logo-1--Streamline-Ultimate.svg_2">
<path id="Vector" d="M18.07 11.25C18.0313 11.2507 17.9933 11.2601 17.9587 11.2774C17.9241 11.2947 17.8938 11.3195 17.87 11.35C17.8477 11.3797 17.8317 11.4137 17.8231 11.4498C17.8145 11.4859 17.8134 11.5234 17.82 11.56C17.9413 12.0303 18.0018 12.5143 18 13C18 14.5913 17.3679 16.1174 16.2426 17.2426C15.1174 18.3679 13.5913 19 12 19C10.4087 19 8.88258 18.3679 7.75736 17.2426C6.63214 16.1174 6 14.5913 6 13C5.99818 12.5143 6.05868 12.0303 6.18 11.56C6.19403 11.5268 6.20125 11.4911 6.20125 11.455C6.20125 11.4189 6.19403 11.3832 6.18 11.35C6.1562 11.3195 6.1259 11.2947 6.0913 11.2774C6.0567 11.2601 6.01868 11.2507 5.98 11.25H0.5C0.367392 11.25 0.240215 11.3027 0.146447 11.3964C0.0526784 11.4902 0 11.6174 0 11.75L0 17.5C0.00264482 19.2231 0.688314 20.8749 1.90673 22.0933C3.12514 23.3117 4.7769 23.9974 6.5 24H17.5C19.2231 23.9974 20.8749 23.3117 22.0933 22.0933C23.3117 20.8749 23.9974 19.2231 24 17.5V11.75C24 11.6174 23.9473 11.4902 23.8536 11.3964C23.7598 11.3027 23.6326 11.25 23.5 11.25H18.07Z" fill="white"/>
<path id="Vector_2" d="M23.5 9.74995C23.6326 9.74995 23.7598 9.69727 23.8536 9.6035C23.9473 9.50973 24 9.38255 24 9.24995V6.49995C23.9974 4.77685 23.3117 3.12509 22.0933 1.90667C20.8749 0.68826 19.2231 0.00259125 17.5 -5.35673e-05H11.75C11.6174 -5.35673e-05 11.4902 0.0526249 11.3964 0.146393C11.3027 0.240161 11.25 0.367338 11.25 0.499946V4.49995C11.25 4.69886 11.171 4.88962 11.0303 5.03028C10.8897 5.17093 10.6989 5.24995 10.5 5.24995C10.3011 5.24995 10.1103 5.17093 9.96967 5.03028C9.82902 4.88962 9.75 4.69886 9.75 4.49995V0.499946C9.75 0.367338 9.69732 0.240161 9.60355 0.146393C9.50979 0.0526249 9.38261 -5.35673e-05 9.25 -5.35673e-05H8.75C8.61739 -5.35673e-05 8.49021 0.0526249 8.39645 0.146393C8.30268 0.240161 8.25 0.367338 8.25 0.499946V4.49995C8.25 4.69886 8.17098 4.88962 8.03033 5.03028C7.88968 5.17093 7.69891 5.24995 7.5 5.24995C7.30109 5.24995 7.11032 5.17093 6.96967 5.03028C6.82902 4.88962 6.75 4.69886 6.75 4.49995V0.499946C6.74706 0.368289 6.69331 0.242871 6.6 0.149946C6.55312 0.0993167 6.49567 0.0596304 6.43172 0.0337063C6.36777 0.00778209 6.2989 -0.00374405 6.23 -5.35673e-05C6.04678 -0.00925949 5.86322 -0.00925949 5.68 -5.35673e-05C5.56073 0.0188864 5.45205 0.0795345 5.37331 0.171095C5.29457 0.262655 5.25087 0.379187 5.25 0.499946V4.49995C5.25 4.69886 5.17098 4.88962 5.03033 5.03028C4.88968 5.17093 4.69891 5.24995 4.5 5.24995C4.30109 5.24995 4.11032 5.17093 3.96967 5.03028C3.82902 4.88962 3.75 4.69886 3.75 4.49995V0.999946C3.74482 0.961517 3.73141 0.924655 3.71071 0.891869C3.69 0.859083 3.66247 0.831141 3.63 0.809946C3.592 0.788004 3.54888 0.776453 3.505 0.776453C3.46112 0.776453 3.418 0.788004 3.38 0.809946C2.35798 1.36794 1.5049 2.19062 0.910212 3.19173C0.315525 4.19285 0.00113326 5.33552 0 6.49995L0 9.24995C0 9.38255 0.0526784 9.50973 0.146447 9.6035C0.240215 9.69727 0.367392 9.74995 0.5 9.74995H6.7C6.77988 9.74879 6.85842 9.72924 6.92952 9.69282C7.00063 9.6564 7.06238 9.60409 7.11 9.53995C7.66469 8.75978 8.39801 8.12366 9.24869 7.68471C10.0994 7.24575 11.0427 7.01671 12 7.01671C12.9573 7.01671 13.9006 7.24575 14.7513 7.68471C15.602 8.12366 16.3353 8.75978 16.89 9.53995C16.9376 9.60409 16.9994 9.6564 17.0705 9.69282C17.1416 9.72924 17.2201 9.74879 17.3 9.74995H23.5ZM17.5 4.49995C17.5 4.23473 17.6054 3.98038 17.7929 3.79284C17.9804 3.6053 18.2348 3.49995 18.5 3.49995H19.5C19.7652 3.49995 20.0196 3.6053 20.2071 3.79284C20.3946 3.98038 20.5 4.23473 20.5 4.49995V5.49995C20.5 5.76516 20.3946 6.01952 20.2071 6.20705C20.0196 6.39459 19.7652 6.49995 19.5 6.49995H18.5C18.2348 6.49995 17.9804 6.39459 17.7929 6.20705C17.6054 6.01952 17.5 5.76516 17.5 5.49995V4.49995Z" fill="white"/>
<path id="Vector_3" d="M9 13C9 13.7956 9.31607 14.5587 9.87868 15.1213C10.4413 15.6839 11.2044 16 12 16C12.7956 16 13.5587 15.6839 14.1213 15.1213C14.6839 14.5587 15 13.7956 15 13C15 12.2044 14.6839 11.4413 14.1213 10.8787C13.5587 10.3161 12.7956 10 12 10C11.2044 10 10.4413 10.3161 9.87868 10.8787C9.31607 11.4413 9 12.2044 9 13Z" fill="white"/>
</g>
</g>
<defs>
<clipPath id="clip0_16_6124">
<rect width="24" height="24" fill="white"/>
</clipPath>
</defs>
</svg>
