<svg width="57" height="55" viewBox="0 0 57 55" fill="none" xmlns="http://www.w3.org/2000/svg">
<path fill-rule="evenodd" clip-rule="evenodd" d="M31.7393 3.40571C31.7393 2.6262 31.4244 1.87861 30.8638 1.32741C30.3032 0.776213 29.5429 0.466553 28.7502 0.466553C27.9574 0.466553 27.1971 0.776213 26.6365 1.32741C26.076 1.87861 25.761 2.6262 25.761 3.40571V6.93271C25.761 7.71222 26.076 8.45981 26.6365 9.01101C27.1971 9.5622 27.9574 9.87187 28.7502 9.87187C29.5429 9.87187 30.3032 9.5622 30.8638 9.01101C31.4244 8.45981 31.7393 7.71222 31.7393 6.93271V3.40571ZM0.652344 28.0947C0.652344 27.3151 0.967269 26.5676 1.52784 26.0164C2.08841 25.4652 2.84871 25.1555 3.64147 25.1555H7.22843C8.0212 25.1555 8.78149 25.4652 9.34206 26.0164C9.90264 26.5676 10.2176 27.3151 10.2176 28.0947C10.2176 28.8742 9.90264 29.6218 9.34206 30.173C8.78149 30.7242 8.0212 31.0338 7.22843 31.0338H3.64147C3.24894 31.0338 2.86024 30.9578 2.49758 30.8101C2.13493 30.6624 1.80541 30.4459 1.52784 30.173C0.967269 29.6218 0.652344 28.8742 0.652344 28.0947ZM47.2828 28.0947C47.2828 27.3151 47.5977 26.5676 48.1583 26.0164C48.7188 25.4652 49.4791 25.1555 50.2719 25.1555H53.8589C54.6516 25.1555 55.4119 25.4652 55.9725 26.0164C56.5331 26.5676 56.848 27.3151 56.848 28.0947C56.848 28.8742 56.5331 29.6218 55.9725 30.173C55.4119 30.7242 54.6516 31.0338 53.8589 31.0338H50.2719C49.4791 31.0338 48.7188 30.7242 48.1583 30.173C47.5977 29.6218 47.2828 28.8742 47.2828 28.0947ZM8.88202 8.55865C9.44256 8.00764 10.2027 7.6981 10.9953 7.6981C11.7879 7.6981 12.5481 8.00764 13.1086 8.55865L15.6458 11.0522C15.9234 11.3252 16.1436 11.6492 16.2939 12.0059C16.4441 12.3625 16.5214 12.7448 16.5214 13.1308C16.5214 13.5168 16.4441 13.8991 16.2939 14.2557C16.1436 14.6124 15.9234 14.9364 15.6458 15.2094C15.3682 15.4823 15.0387 15.6989 14.676 15.8466C14.3132 15.9943 13.9245 16.0704 13.5319 16.0704C13.1393 16.0704 12.7506 15.9943 12.3879 15.8466C12.0252 15.6989 11.6956 15.4823 11.418 15.2094L8.88202 12.7158C8.60437 12.4429 8.38412 12.1188 8.23385 11.7622C8.08358 11.4055 8.00624 11.0233 8.00624 10.6372C8.00624 10.2512 8.08358 9.86892 8.23385 9.51228C8.38412 9.15563 8.60437 8.83158 8.88202 8.55865ZM44.3917 8.55865C44.9554 8.02326 45.7105 7.72701 46.4942 7.7337C47.278 7.7404 48.0277 8.04951 48.5819 8.59445C49.1361 9.1394 49.4505 9.87657 49.4573 10.6472C49.4641 11.4179 49.1628 12.1603 48.6183 12.7146L46.0835 15.2094C45.8059 15.4823 45.4764 15.6989 45.1137 15.8466C44.751 15.9943 44.3622 16.0704 43.9696 16.0704C43.1768 16.0704 42.4164 15.7607 41.8557 15.2094C41.2951 14.6581 40.9801 13.9104 40.9801 13.1308C40.9801 12.3512 41.2951 11.6035 41.8557 11.0522L44.3917 8.55865ZM44.8915 29.2703C44.8915 20.5046 37.665 13.3989 28.7502 13.3989C19.8354 13.3989 12.6089 20.5046 12.6089 29.2703C12.6089 33.6262 14.3928 37.5705 17.2815 40.4391H40.2189C43.2171 37.4702 44.8972 33.4543 44.8915 29.2703ZM28.7502 23.9798C30.1771 23.9798 31.5457 24.5372 32.5547 25.5294C33.5637 26.5215 34.1306 27.8672 34.1306 29.2703C34.1306 29.738 34.3196 30.1866 34.6559 30.5173C34.9922 30.848 35.4484 31.0338 35.9241 31.0338C36.3997 31.0338 36.8559 30.848 37.1923 30.5173C37.5286 30.1866 37.7176 29.738 37.7176 29.2703C37.7176 26.9318 36.7728 24.689 35.0911 23.0354C33.4094 21.3818 31.1285 20.4528 28.7502 20.4528C28.2745 20.4528 27.8183 20.6386 27.482 20.9694C27.1456 21.3001 26.9567 21.7486 26.9567 22.2163C26.9567 22.684 27.1456 23.1326 27.482 23.4633C27.8183 23.794 28.2745 23.9798 28.7502 23.9798ZM39.6426 43.9661H17.8578C17.8505 44.0686 17.847 44.1714 17.847 44.2741C17.847 44.7444 17.9271 45.2006 18.0897 45.6309C18.103 45.7204 18.1082 45.8109 18.1053 45.9013C18.0998 46.0794 18.0746 46.2564 18.03 46.4291C17.9048 46.8952 17.8433 47.3756 17.847 47.8576C17.847 48.3831 17.9128 48.8592 18.03 49.286C18.3289 50.3641 19.1013 51.0178 19.8641 51.3658C20.5827 51.6938 21.3551 51.789 21.966 51.8019C22.1526 51.8066 22.3582 51.8113 22.5866 51.8149C23.0601 53.0622 24.1648 54.0992 25.6594 54.319C26.4509 54.4366 27.5246 54.5471 28.7502 54.5471C29.9745 54.5471 31.0494 54.4354 31.8397 54.319C33.3343 54.0992 34.4403 53.0622 34.9138 51.8149L35.5343 51.8031C36.1453 51.7878 36.9177 51.6938 37.6363 51.3658C38.4003 51.0178 39.1727 50.3641 39.4704 49.2848C39.5888 48.8592 39.6533 48.3831 39.6533 47.8564C39.6533 47.3309 39.5888 46.8547 39.4704 46.4291C39.4255 46.2561 39.4003 46.0786 39.3951 45.9001C39.3923 45.8247 39.3951 45.7493 39.4034 45.6744L39.4058 45.6603L39.4082 45.6403L39.4106 45.6309C39.6106 45.0993 39.6906 44.531 39.6426 43.9661Z" fill="white"/>
</svg>
