<svg width="52" height="52" viewBox="0 0 52 52" fill="none" xmlns="http://www.w3.org/2000/svg">
<path d="M36.8332 37.9166H46.0415C46.0415 37.9166 46.5832 37.9166 46.5832 38.4583V41.7083C46.5832 41.7083 46.5832 42.25 46.0415 42.25H36.8332C36.8332 42.25 36.2915 42.25 36.2915 41.7083V38.4583C36.2915 38.4583 36.2915 37.9166 36.8332 37.9166Z" fill="white"/>
<path d="M36.8332 45.5C35.8276 45.5 34.8631 45.1005 34.1521 44.3894C33.441 43.6784 33.0415 42.7139 33.0415 41.7083V30.875C33.0415 29.8694 33.441 28.905 34.1521 28.1939C34.8631 27.4828 35.8276 27.0833 36.8332 27.0833H46.0415C46.1852 27.0833 46.3229 27.0263 46.4245 26.9247C46.5261 26.8231 46.5832 26.6853 46.5832 26.5417V24.9167C46.5832 23.7674 46.1266 22.6652 45.314 21.8525C44.5013 21.0399 43.3991 20.5833 42.2498 20.5833H40.6248V14.625C40.6248 10.7462 39.084 7.02628 36.3413 4.28356C33.5986 1.54084 29.8786 0 25.9998 0C22.121 0 18.4011 1.54084 15.6584 4.28356C12.9157 7.02628 11.3748 10.7462 11.3748 14.625V20.5833H9.74984C8.60057 20.5833 7.49837 21.0399 6.68571 21.8525C5.87305 22.6652 5.4165 23.7674 5.4165 24.9167V47.6667C5.4165 48.8159 5.87305 49.9181 6.68571 50.7308C7.49837 51.5435 8.60057 52 9.74984 52H42.2498C43.3991 52 44.5013 51.5435 45.314 50.7308C46.1266 49.9181 46.5832 48.8159 46.5832 47.6667V46.0417C46.5832 45.898 46.5261 45.7602 46.4245 45.6587C46.3229 45.5571 46.1852 45.5 46.0415 45.5H36.8332ZM16.7915 14.625C16.7915 12.1828 17.7617 9.84062 19.4886 8.11373C21.2155 6.38683 23.5576 5.41667 25.9998 5.41667C28.442 5.41667 30.7842 6.38683 32.5111 8.11373C34.238 9.84062 35.2082 12.1828 35.2082 14.625V19.5C35.2082 19.7873 35.094 20.0629 34.8909 20.266C34.6877 20.4692 34.4122 20.5833 34.1248 20.5833H17.8748C17.5875 20.5833 17.312 20.4692 17.1088 20.266C16.9056 20.0629 16.7915 19.7873 16.7915 19.5V14.625Z" fill="white"/>
<path d="M36.8332 30.3334H46.0415C46.0415 30.3334 46.5832 30.3334 46.5832 30.875V34.125C46.5832 34.125 46.5832 34.6667 46.0415 34.6667H36.8332C36.8332 34.6667 36.2915 34.6667 36.2915 34.125V30.875C36.2915 30.875 36.2915 30.3334 36.8332 30.3334Z" fill="white"/>
</svg>
