<svg width="16" height="15" viewBox="0 0 16 15" fill="none" xmlns="http://www.w3.org/2000/svg">
<path d="M3.59101 9.20077C3.38731 8.7046 3.27123 8.16292 3.25985 7.59619H0.250977C0.263495 8.57146 0.461507 9.50007 0.810873 10.3513L3.58987 9.20077H3.59101Z" fill="#FFB800"/>
<path d="M3.25774 7.46977C3.26115 6.90077 3.37154 6.35681 3.56841 5.85609L0.789413 4.70557C0.445736 5.56021 0.253414 6.49223 0.25 7.46977H3.25774Z" fill="#FFB800"/>
<path d="M4.61862 4.279C5.01237 3.89663 5.47554 3.58482 5.98878 3.36518L4.83712 0.586182C3.95745 0.95717 3.16312 1.49317 2.4917 2.15207L4.61862 4.279Z" fill="#FFB800"/>
<path d="M3.61494 5.7378C3.83343 5.22456 4.14525 4.7614 4.52875 4.36765L2.40183 2.24072C1.74179 2.91214 1.20693 3.70533 0.835938 4.58614L3.61494 5.7378Z" fill="#FFB800"/>
<path d="M13.1299 2.27612L11.0029 4.40305C11.3773 4.79566 11.6812 5.25427 11.894 5.76182L14.673 4.6113C14.3077 3.73618 13.7797 2.94641 13.1299 2.27612Z" fill="#FFB800"/>
<path d="M6.10625 3.31841C6.60697 3.12154 7.15093 3.01115 7.71993 3.00774V0C6.74239 0.00341401 5.81037 0.195736 4.95459 0.539413L6.10511 3.31841H6.10625Z" fill="#FFB800"/>
<path d="M7.84619 3.00896C8.41292 3.02148 8.9546 3.13755 9.45077 3.34012L10.6013 0.561117C9.75121 0.211751 8.82146 0.0137387 7.84619 0.0012207V3.00896Z" fill="#FFB800"/>
<path d="M9.56787 3.39122C10.0731 3.61541 10.5295 3.92836 10.9153 4.31187L13.0422 2.18494C12.3787 1.52376 11.5912 0.987763 10.7195 0.611084L9.56787 3.39122Z" fill="#FFB800"/>
<path d="M4.56064 10.6653C4.17714 10.2783 3.86419 9.82201 3.64 9.31787L0.859863 10.4695C1.23654 11.3424 1.77254 12.1287 2.43372 12.7922L4.56064 10.6653Z" fill="#FFB800"/>
<path d="M11.8702 9.29395C11.6517 9.79353 11.3456 10.2453 10.9712 10.6311L13.0981 12.758C13.7502 12.0957 14.2794 11.3128 14.6504 10.4456L11.8702 9.29395Z" fill="#FFB800"/>
<path d="M12.241 7.59611C12.2296 8.15373 12.1158 8.68745 11.9189 9.17679L14.6979 10.3273C15.0428 9.48292 15.2374 8.56113 15.2487 7.59497H12.241V7.59611Z" fill="#FFB800"/>
<path d="M11.9409 5.87904C12.1321 6.37293 12.2391 6.90893 12.2425 7.46996H15.2502C15.2468 6.50152 15.0579 5.57746 14.7199 4.72852L11.9409 5.87904Z" fill="#FFB800"/>
<path d="M10.8811 10.7212C10.4953 11.0956 10.0435 11.4017 9.54395 11.6202L10.6956 14.4004C11.5628 14.0294 12.3457 13.5002 13.008 12.8481L10.8811 10.7212Z" fill="#FFB800"/>
<path d="M6.01158 11.6452C5.50403 11.4324 5.04541 11.1274 4.6528 10.7542L2.52588 12.8811C3.19616 13.532 3.98594 14.0589 4.86106 14.4242L6.01158 11.6452Z" fill="#FFB800"/>
<path d="M7.71996 11.9935C7.15893 11.9901 6.62407 11.8831 6.12904 11.6919L4.97852 14.4709C5.82746 14.8089 6.75152 14.9978 7.71996 15.0012V11.9935Z" fill="#FFB800"/>
<path d="M9.42785 11.6692C8.93737 11.8672 8.40479 11.9799 7.84717 11.9912V14.999C8.81333 14.9865 9.73397 14.7919 10.5795 14.4482L9.42899 11.6692H9.42785Z" fill="#FFB800"/>
</svg>
