<svg width="15" height="16" viewBox="0 0 15 16" fill="none" xmlns="http://www.w3.org/2000/svg">
<g clip-path="url(#clip0_7_5567)">
<path d="M3.34117 9.70074C3.13747 9.20457 3.02139 8.66289 3.01001 8.09616H0.001138C0.013656 9.07143 0.211668 10 0.561035 10.8513L3.34003 9.70074H3.34117Z" fill="#41414A"/>
<path d="M3.00774 7.96984C3.01115 7.40084 3.12154 6.85688 3.31841 6.35616L0.539413 5.20564C0.195736 6.06028 0.00341401 6.9923 0 7.96984H3.00774Z" fill="#41414A"/>
<path d="M4.36879 4.77889C4.76254 4.39652 5.2257 4.08471 5.73894 3.86507L4.58729 1.08607C3.70761 1.45706 2.91328 1.99306 2.24186 2.65196L4.36879 4.77889Z" fill="#41414A"/>
<path d="M3.36507 6.2378C3.58357 5.72457 3.89538 5.2614 4.27889 4.86765L2.15196 2.74073C1.49192 3.41215 0.957059 4.20533 0.586071 5.08615L3.36507 6.2378Z" fill="#41414A"/>
<path d="M12.8799 2.776L10.753 4.90293C11.1274 5.29554 11.4312 5.75415 11.644 6.2617L14.423 5.11118C14.0577 4.23606 13.5297 3.44629 12.8799 2.776Z" fill="#41414A"/>
<path d="M5.85616 3.81841C6.35688 3.62154 6.90084 3.51115 7.46984 3.50774V0.5C6.4923 0.503414 5.56028 0.695736 4.7045 1.03941L5.85502 3.81841H5.85616Z" fill="#41414A"/>
<path d="M7.59616 3.50888C8.16289 3.52139 8.70457 3.63747 9.20074 3.84003L10.3513 1.06103C9.50118 0.711668 8.57143 0.513656 7.59616 0.501138V3.50888Z" fill="#41414A"/>
<path d="M9.31796 3.89125C9.82323 4.11543 10.2796 4.42838 10.6654 4.81189L12.7923 2.68496C12.1288 2.02378 11.3413 1.48779 10.4696 1.11111L9.31796 3.89125Z" fill="#41414A"/>
<path d="M4.31075 11.1654C3.92724 10.7784 3.61429 10.3221 3.39011 9.81796L0.609969 10.9696C0.986647 11.8425 1.52265 12.6288 2.18383 13.2923L4.31075 11.1654Z" fill="#41414A"/>
<path d="M11.6201 9.79406C11.4016 10.2936 11.0955 10.7454 10.7211 11.1312L12.848 13.2581C13.5001 12.5958 14.0293 11.8129 14.4003 10.9457L11.6201 9.79406Z" fill="#41414A"/>
<path d="M11.9911 8.09616C11.9797 8.65378 11.8659 9.1875 11.6691 9.67685L14.4481 10.8274C14.7929 9.98297 14.9875 9.06119 14.9989 8.09502H11.9911V8.09616Z" fill="#41414A"/>
<path d="M11.6907 6.37892C11.8819 6.87281 11.9888 7.40881 11.9923 7.96984H15C14.9966 7.0014 14.8077 6.07735 14.4697 5.2284L11.6907 6.37892Z" fill="#41414A"/>
<path d="M10.6312 11.2211C10.2454 11.5955 9.79364 11.9016 9.29406 12.1201L10.4457 14.9003C11.3129 14.5293 12.0958 14.0001 12.7581 13.348L10.6312 11.2211Z" fill="#41414A"/>
<path d="M5.7617 12.1452C5.25415 11.9324 4.79554 11.6274 4.40293 11.2541L2.276 13.381C2.94629 14.032 3.73606 14.5589 4.61118 14.9242L5.7617 12.1452Z" fill="#41414A"/>
<path d="M7.46984 12.4934C6.90881 12.49 6.37395 12.383 5.87892 12.1918L4.7284 14.9708C5.57735 15.3088 6.5014 15.4977 7.46984 15.5011V12.4934Z" fill="#41414A"/>
<path d="M9.17798 12.1691C8.6875 12.3671 8.15492 12.4797 7.5973 12.4911V15.4989C8.56346 15.4863 9.48411 15.2917 10.3296 14.9481L9.17912 12.1691H9.17798Z" fill="#41414A"/>
</g>
<defs>
<clipPath id="clip0_7_5567">
<rect width="15" height="15" fill="white" transform="translate(0 0.5)"/>
</clipPath>
</defs>
</svg>
