<svg width="16" height="15" viewBox="0 0 16 15" fill="none" xmlns="http://www.w3.org/2000/svg">
<path d="M3.84101 9.20077C3.63731 8.7046 3.52123 8.16292 3.50985 7.59619H0.500977C0.513495 8.57146 0.711507 9.50007 1.06087 10.3513L3.83987 9.20077H3.84101Z" fill="#FF0000"/>
<path d="M3.50774 7.46977C3.51115 6.90077 3.62154 6.35681 3.81841 5.85609L1.03941 4.70557C0.695736 5.56021 0.503414 6.49223 0.5 7.46977H3.50774Z" fill="#FF0000"/>
<path d="M4.86862 4.279C5.26237 3.89663 5.72554 3.58482 6.23878 3.36518L5.08712 0.586182C4.20745 0.95717 3.41312 1.49317 2.7417 2.15207L4.86862 4.279Z" fill="#FF0000"/>
<path d="M3.86494 5.7378C4.08343 5.22456 4.39525 4.7614 4.77875 4.36765L2.65183 2.24072C1.99179 2.91214 1.45693 3.70533 1.08594 4.58614L3.86494 5.7378Z" fill="#FF0000"/>
<path d="M13.3799 2.27612L11.2529 4.40305C11.6273 4.79566 11.9312 5.25427 12.144 5.76182L14.923 4.6113C14.5577 3.73618 14.0297 2.94641 13.3799 2.27612Z" fill="#FF0000"/>
<path d="M6.35625 3.31841C6.85697 3.12154 7.40093 3.01115 7.96993 3.00774V0C6.99239 0.00341401 6.06037 0.195736 5.20459 0.539413L6.35511 3.31841H6.35625Z" fill="#FF0000"/>
<path d="M8.09619 3.00896C8.66292 3.02148 9.2046 3.13755 9.70077 3.34012L10.8513 0.561117C10.0012 0.211751 9.07146 0.0137387 8.09619 0.0012207V3.00896Z" fill="#FF0000"/>
<path d="M9.81787 3.39122C10.3231 3.61541 10.7795 3.92836 11.1653 4.31187L13.2922 2.18494C12.6287 1.52376 11.8412 0.987763 10.9695 0.611084L9.81787 3.39122Z" fill="#FF0000"/>
<path d="M4.81064 10.6653C4.42714 10.2783 4.11419 9.82201 3.89 9.31787L1.10986 10.4695C1.48654 11.3424 2.02254 12.1287 2.68372 12.7922L4.81064 10.6653Z" fill="#FF0000"/>
<path d="M12.1202 9.29395C11.9017 9.79353 11.5956 10.2453 11.2212 10.6311L13.3481 12.758C14.0002 12.0957 14.5294 11.3128 14.9004 10.4456L12.1202 9.29395Z" fill="#FF0000"/>
<path d="M12.491 7.59611C12.4796 8.15373 12.3658 8.68745 12.1689 9.17679L14.9479 10.3273C15.2928 9.48292 15.4874 8.56113 15.4987 7.59497H12.491V7.59611Z" fill="#FF0000"/>
<path d="M12.1909 5.87904C12.3821 6.37293 12.4891 6.90893 12.4925 7.46996H15.5002C15.4968 6.50152 15.3079 5.57746 14.9699 4.72852L12.1909 5.87904Z" fill="#FF0000"/>
<path d="M11.1311 10.7212C10.7453 11.0956 10.2935 11.4017 9.79395 11.6202L10.9456 14.4004C11.8128 14.0294 12.5957 13.5002 13.258 12.8481L11.1311 10.7212Z" fill="#FF0000"/>
<path d="M6.26158 11.6452C5.75403 11.4324 5.29541 11.1274 4.9028 10.7542L2.77588 12.8811C3.44616 13.532 4.23594 14.0589 5.11106 14.4242L6.26158 11.6452Z" fill="#FF0000"/>
<path d="M7.96996 11.9935C7.40893 11.9901 6.87407 11.8831 6.37904 11.6919L5.22852 14.4709C6.07746 14.8089 7.00152 14.9978 7.96996 15.0012V11.9935Z" fill="#FF0000"/>
<path d="M9.67785 11.6692C9.18737 11.8672 8.65479 11.9799 8.09717 11.9912V14.999C9.06333 14.9865 9.98397 14.7919 10.8295 14.4482L9.67899 11.6692H9.67785Z" fill="#FF0000"/>
</svg>
