<svg width="48" height="48" viewBox="0 0 48 48" fill="none" xmlns="http://www.w3.org/2000/svg">
<g clip-path="url(#clip0_24_6218)">
<path fill-rule="evenodd" clip-rule="evenodd" d="M48 24.0001C48.0082 30.1814 45.6232 36.1259 41.3451 40.5875C39.1149 42.9254 36.4344 44.7874 33.4652 46.0613C30.496 47.3353 27.2995 47.9948 24.0686 48.0001H24H23.9314C20.7005 47.9948 17.504 47.3353 14.5348 46.0613C11.5656 44.7874 8.88506 42.9254 6.65486 40.5875C3.94268 37.7515 1.9673 34.2936 0.901736 30.5169C-0.163825 26.7402 -0.287053 22.7598 0.542846 18.9244C1.37274 15.089 3.13045 11.5156 5.662 8.51719C8.19355 5.5188 11.4217 3.1869 15.0637 1.72575C18.7057 0.264602 22.6504 -0.281215 26.5523 0.136108C30.4542 0.553432 34.1943 1.92116 37.4449 4.1195C40.6955 6.31784 43.3575 9.2797 45.1976 12.7457C47.0378 16.2116 48 20.0759 48 24.0001ZM38.5474 36.0001C36.7798 33.8533 34.5585 32.125 32.0431 30.9393C29.5277 29.7536 26.7808 29.1402 24 29.143C21.2192 29.1402 18.4723 29.7536 15.9569 30.9393C13.4415 32.125 11.2202 33.8533 9.45257 36.0001C11.2202 38.1469 13.4415 39.8752 15.9569 41.0609C18.4723 42.2466 21.2192 42.8601 24 42.8572C26.7808 42.8601 29.5277 42.2466 32.0431 41.0609C34.5585 39.8752 36.7798 38.1469 38.5474 36.0001ZM24 25.7144C25.1256 25.7144 26.2402 25.4927 27.2801 25.0619C28.3201 24.6312 29.265 23.9998 30.0609 23.2039C30.8568 22.4079 31.4882 21.463 31.919 20.4231C32.3497 19.3832 32.5714 18.2686 32.5714 17.143C32.5714 16.0173 32.3497 14.9028 31.919 13.8628C31.4882 12.8229 30.8568 11.878 30.0609 11.082C29.265 10.2861 28.3201 9.65475 27.2801 9.22399C26.2402 8.79324 25.1256 8.57153 24 8.57153C21.7267 8.57153 19.5465 9.47459 17.9391 11.082C16.3316 12.6895 15.4286 14.8697 15.4286 17.143C15.4286 19.4162 16.3316 21.5964 17.9391 23.2039C19.5465 24.8113 21.7267 25.7144 24 25.7144Z" fill="white"/>
</g>
<defs>
<clipPath id="clip0_24_6218">
<rect width="48" height="48" fill="white"/>
</clipPath>
</defs>
</svg>
