<svg width="52" height="49" viewBox="0 0 52 49" fill="none" xmlns="http://www.w3.org/2000/svg">
<path fill-rule="evenodd" clip-rule="evenodd" d="M38.0559 12.1948C35.0275 9.758 31.2238 8.42565 27.2979 8.42659C26.7857 8.42659 26.2786 8.32821 25.8055 8.13705C25.3324 7.94589 24.9025 7.66571 24.5403 7.3125C24.1782 6.95929 23.891 6.53997 23.695 6.07848C23.499 5.61698 23.3981 5.12236 23.3981 4.62284C23.3981 4.12333 23.499 3.6287 23.695 3.16721C23.891 2.70572 24.1782 2.2864 24.5403 1.93318C24.9025 1.57997 25.3324 1.29979 25.8055 1.10864C26.2786 0.917479 26.7857 0.819092 27.2979 0.819092C32.5505 0.818276 37.6665 2.45086 41.903 5.4797C46.1394 8.50854 49.2755 12.7759 50.8558 17.6619C52.436 22.5479 52.3781 27.798 50.6905 32.6497C49.0028 37.5014 45.7733 41.702 41.4711 44.6412C37.1688 47.5805 32.0179 49.1053 26.7665 48.9943C21.5152 48.8832 16.4368 47.1421 12.2692 44.0238C8.1016 40.9055 5.06175 36.5724 3.59123 31.6539C2.12071 26.7354 2.2961 21.4877 4.09194 16.6731L2.02769 15.5675C1.33196 15.1962 0.768851 14.6267 0.413461 13.9352C0.0580717 13.2436 -0.0726999 12.4628 0.0385888 11.6969C0.149878 10.931 0.497936 10.2164 1.03634 9.64841C1.57474 9.08041 2.2779 8.68604 3.05202 8.51788L12.0474 6.56022C13.0408 6.34259 14.0821 6.51254 14.9487 7.03376C15.8154 7.55498 16.4387 8.38614 16.6854 9.34964L18.6977 17.1955C18.8821 17.9132 18.8479 18.6677 18.5993 19.3667C18.3507 20.0657 17.8985 20.6789 17.2981 21.131C16.6977 21.5832 15.9752 21.8547 15.2189 21.9124C14.4627 21.97 13.7057 21.8113 13.0405 21.4557L11.049 20.3907C10.2149 23.2479 10.1879 26.2719 10.971 29.1429C11.754 32.0138 13.3181 34.625 15.4976 36.7001C17.6771 38.7753 20.3911 40.2373 23.3526 40.9316C26.314 41.6258 29.4128 41.5265 32.3211 40.6441C35.2294 39.7616 37.8391 38.1289 39.8743 35.9187C41.9094 33.7084 43.2943 31.0027 43.8824 28.0878C44.4705 25.1729 44.24 22.1571 43.2153 19.3595C42.1906 16.5619 40.4097 14.0864 38.0611 12.1948H38.0559ZM25.0048 15.0603C25.4596 14.6187 26.0382 14.3182 26.6678 14.1968C27.2974 14.0755 27.9497 14.1387 28.5426 14.3784C29.1354 14.6182 29.6422 15.0238 29.999 15.5441C30.3558 16.0643 30.5467 16.676 30.5476 17.302V23.596L34.7957 27.7395C35.4052 28.334 35.7477 29.1404 35.7477 29.9812C35.7477 30.822 35.4052 31.6283 34.7957 32.2229C34.1862 32.8174 33.3595 33.1514 32.4975 33.1514C31.6355 33.1514 30.8088 32.8174 30.1992 32.2229L24.9996 27.1512C24.6979 26.8568 24.4585 26.5073 24.2953 26.1227C24.132 25.738 24.048 25.3258 24.0481 24.9095V17.302C24.0481 16.4601 24.3913 15.6537 24.9996 15.0603H25.0048Z" fill="white"/>
</svg>
