<svg width="16" height="15" viewBox="0 0 16 15" fill="none" xmlns="http://www.w3.org/2000/svg">
<path d="M4.21601 9.20077C4.01231 8.7046 3.89623 8.16292 3.88485 7.59619H0.875977C0.888495 8.57146 1.08651 9.50007 1.43587 10.3513L4.21487 9.20077H4.21601Z" fill="white"/>
<path d="M3.88274 7.46977C3.88615 6.90077 3.99654 6.35681 4.19341 5.85609L1.41441 4.70557C1.07074 5.56021 0.878414 6.49223 0.875 7.46977H3.88274Z" fill="white"/>
<path d="M5.24362 4.279C5.63737 3.89663 6.10054 3.58482 6.61378 3.36518L5.46212 0.586182C4.58245 0.95717 3.78812 1.49317 3.1167 2.15207L5.24362 4.279Z" fill="white"/>
<path d="M4.23994 5.7378C4.45843 5.22456 4.77025 4.7614 5.15375 4.36765L3.02683 2.24072C2.36679 2.91214 1.83193 3.70533 1.46094 4.58614L4.23994 5.7378Z" fill="white"/>
<path d="M13.7549 2.27612L11.6279 4.40305C12.0023 4.79566 12.3062 5.25427 12.519 5.76182L15.298 4.6113C14.9327 3.73618 14.4047 2.94641 13.7549 2.27612Z" fill="white"/>
<path d="M6.73125 3.31841C7.23197 3.12154 7.77593 3.01115 8.34493 3.00774V0C7.36739 0.00341401 6.43537 0.195736 5.57959 0.539413L6.73011 3.31841H6.73125Z" fill="white"/>
<path d="M8.47119 3.00896C9.03792 3.02148 9.5796 3.13755 10.0758 3.34012L11.2263 0.561117C10.3762 0.211751 9.44646 0.0137387 8.47119 0.0012207V3.00896Z" fill="white"/>
<path d="M10.1929 3.39122C10.6981 3.61541 11.1545 3.92836 11.5403 4.31187L13.6672 2.18494C13.0037 1.52376 12.2162 0.987763 11.3445 0.611084L10.1929 3.39122Z" fill="white"/>
<path d="M5.18564 10.6653C4.80214 10.2783 4.48919 9.82201 4.265 9.31787L1.48486 10.4695C1.86154 11.3424 2.39754 12.1287 3.05872 12.7922L5.18564 10.6653Z" fill="white"/>
<path d="M12.4952 9.29395C12.2767 9.79353 11.9706 10.2453 11.5962 10.6311L13.7231 12.758C14.3752 12.0957 14.9044 11.3128 15.2754 10.4456L12.4952 9.29395Z" fill="white"/>
<path d="M12.866 7.59611C12.8546 8.15373 12.7408 8.68745 12.5439 9.17679L15.3229 10.3273C15.6678 9.48292 15.8624 8.56113 15.8737 7.59497H12.866V7.59611Z" fill="white"/>
<path d="M12.5659 5.87904C12.7571 6.37293 12.8641 6.90893 12.8675 7.46996H15.8752C15.8718 6.50152 15.6829 5.57746 15.3449 4.72852L12.5659 5.87904Z" fill="white"/>
<path d="M11.5061 10.7212C11.1203 11.0956 10.6685 11.4017 10.1689 11.6202L11.3206 14.4004C12.1878 14.0294 12.9707 13.5002 13.633 12.8481L11.5061 10.7212Z" fill="white"/>
<path d="M6.63658 11.6452C6.12903 11.4324 5.67041 11.1274 5.2778 10.7542L3.15088 12.8811C3.82116 13.532 4.61094 14.0589 5.48606 14.4242L6.63658 11.6452Z" fill="white"/>
<path d="M8.34496 11.9935C7.78393 11.9901 7.24907 11.8831 6.75404 11.6919L5.60352 14.4709C6.45246 14.8089 7.37652 14.9978 8.34496 15.0012V11.9935Z" fill="white"/>
<path d="M10.0529 11.6692C9.56237 11.8672 9.02979 11.9799 8.47217 11.9912V14.999C9.43833 14.9865 10.359 14.7919 11.2045 14.4482L10.054 11.6692H10.0529Z" fill="white"/>
</svg>
