<?xml version="1.0" encoding="UTF-8"?><svg id="Layer_1" xmlns="http://www.w3.org/2000/svg" viewBox="0 0 471.69 478.48"><defs><style>.cls-1{fill:#fff;font-family:MontserratRoman-Bold, Montserrat;font-size:80.27px;font-variation-settings:'wght' 700;font-weight:700;}.cls-2{stroke-width:0px;}</style></defs><path class="cls-2" d="M351.91,238.86c-2.61,152.57-229.56,152.55-232.14,0,2.61-152.57,229.56-152.54,232.14,0Z"/><path class="cls-2" d="M240.94,105.91c11.01.41,21.67,2.16,31.84,5.08l22.1-64.39c-17.12-5.24-35.21-8.26-53.93-8.73v68.03Z"/><path class="cls-2" d="M198.03,111.24c10.88-3.2,22.34-5.05,34.18-5.37V37.87c-19.06.34-37.47,3.32-54.88,8.59l20.7,64.79Z"/><path class="cls-2" d="M303.16,49.35l-22.07,64.31c10.58,3.81,20.55,8.91,29.71,15.12l41.11-54.2c-14.89-10.5-31.27-19.03-48.75-25.22Z"/><path class="cls-2" d="M160.72,128.89c8.95-6.1,18.68-11.14,29.01-14.93l-20.7-64.79c-17.43,6.12-33.76,14.56-48.62,24.96l40.31,54.76Z"/><path class="cls-2" d="M426.02,306.49l-64.31-22.07c-3.71,10.38-8.66,20.17-14.68,29.18l54.22,41.13c10.3-14.76,18.68-30.96,24.77-48.23Z"/><path class="cls-2" d="M317.84,133.93c9.18,7.15,17.42,15.45,24.46,24.72l54.75-40.31c-10.92-14.51-23.75-27.49-38.12-38.59l-41.09,54.17Z"/><path class="cls-2" d="M402.14,125.44l-54.79,40.34c5.94,8.98,10.83,18.72,14.48,29.04l64.8-20.7c-5.96-17.42-14.25-33.77-24.49-48.67Z"/><path class="cls-2" d="M169.83,429.99l22.08-64.32c-10.52-3.66-20.44-8.59-29.58-14.62l-41.14,54.24c14.88,10.31,31.22,18.67,48.64,24.7Z"/><path class="cls-2" d="M364.46,203.14c2.96,10.5,4.66,21.52,4.94,32.9h68.01c-.31-18.59-3.13-36.57-8.14-53.61l-64.81,20.71Z"/><path class="cls-2" d="M369.36,244.77c-.43,10.83-2.15,21.31-5,31.33l64.39,22.1c5.16-16.97,8.16-34.88,8.64-53.42h-68.03Z"/><path class="cls-2" d="M232.66,373.01c-11.2-.26-22.06-1.9-32.42-4.75l-22.1,64.4c17.31,5.16,35.6,8.06,54.52,8.35v-68Z"/><path class="cls-2" d="M155.19,346c-9.24-7-17.52-15.19-24.66-24.31l-54.77,40.32c11.02,14.37,23.92,27.21,38.35,38.15l41.08-54.16Z"/><path class="cls-2" d="M107.72,277.52c-3.12-10.53-4.98-21.59-5.41-33.03H34.29c.46,18.65,3.46,36.67,8.65,53.73l64.79-20.7Z"/><path class="cls-2" d="M125.36,314.66c-6.07-8.9-11.1-18.58-14.9-28.85l-64.8,20.71c6.13,17.37,14.56,33.64,24.94,48.46l54.76-40.31Z"/><path class="cls-2" d="M341.93,320.69c-6.98,9.1-15.1,17.26-24.15,24.3l40.32,54.77c14.29-10.91,27.08-23.69,38-37.98l-54.16-41.08Z"/><path class="cls-2" d="M69.98,124.8c-10.34,14.93-18.71,31.32-24.75,48.8l64.33,22.08c3.67-10.58,8.61-20.55,14.67-29.73l-54.24-41.14Z"/><path class="cls-2" d="M129.26,158.81c7.03-9.28,15.25-17.59,24.43-24.75l-40.32-54.77c-14.41,11.04-27.29,23.97-38.26,38.44l54.16,41.08Z"/><path class="cls-2" d="M310.74,350.14c-8.8,5.96-18.34,10.9-28.47,14.65l20.71,64.8c17.22-6.08,33.36-14.43,48.08-24.69l-40.31-54.76Z"/><path class="cls-2" d="M273.98,367.54c-10.39,3.09-21.31,4.95-32.6,5.41v68.03c18.5-.5,36.37-3.5,53.3-8.65l-20.7-64.78Z"/><path class="cls-2" d="M102.28,235.77c.3-10.97,1.9-21.6,4.69-31.75l-64.4-22.1c-5.09,17.11-7.96,35.17-8.3,53.86h68.01Z"/><path class="cls-2" d="M235.84,0c-314.48,5.37-314.43,473.16.01,478.48,314.47-5.37,314.42-473.16-.01-478.48ZM235.84,457.86c-287.37-4.91-287.33-432.37,0-437.23,287.36,4.91,287.32,432.37,0,437.23Z"/><text class="cls-1" transform="translate(162.86 270.09)"><tspan x="0" y="0">100</tspan></text></svg>